<?xml version="1.0" standalone="no"?><!DOCTYPE svg PUBLIC "-//W3C//DTD SVG 1.1//EN" "http://www.w3.org/Graphics/SVG/1.1/DTD/svg11.dtd"><svg t="1598197111952" class="icon" viewBox="0 0 1024 1024" version="1.1" xmlns="http://www.w3.org/2000/svg" p-id="1542" xmlns:xlink="http://www.w3.org/1999/xlink" width="200" height="200"><defs><style type="text/css"></style></defs><path d="M0 234.666667a128 128 0 0 1 128-128h768a128 128 0 0 1 128 128v533.333333a128 128 0 0 1-128 128H298.666667a387.2 387.2 0 0 0-142.293334 33.706667l-18.346666 8.96C67.626667 973.653333 0 932.053333 0 853.333333z" fill="#2E73FF" p-id="1543"></path><path d="M298.666667 469.333333a37.546667 37.546667 0 0 1 42.666666 42.666667 37.546667 37.546667 0 0 1-42.666666 42.666667 37.76 37.76 0 0 1-42.666667-42.666667 37.546667 37.546667 0 0 1 42.666667-42.666667z m0 0M512 469.333333a37.546667 37.546667 0 0 1 42.666667 42.666667 37.546667 37.546667 0 0 1-42.666667 42.666667 37.546667 37.546667 0 0 1-42.666667-42.666667 37.546667 37.546667 0 0 1 42.666667-42.666667z m0 0M725.333333 469.333333a37.546667 37.546667 0 0 1 42.666667 42.666667 37.76 37.76 0 0 1-42.666667 42.666667 37.76 37.76 0 0 1-42.666666-42.666667 37.546667 37.546667 0 0 1 42.666666-42.666667z m0 0" fill="#FFFFFF" p-id="1544"></path></svg>