<?xml version="1.0" standalone="no"?><!DOCTYPE svg PUBLIC "-//W3C//DTD SVG 1.1//EN" "http://www.w3.org/Graphics/SVG/1.1/DTD/svg11.dtd"><svg t="1598261269341" class="icon" viewBox="0 0 1054 1024" version="1.1" xmlns="http://www.w3.org/2000/svg" p-id="2006" xmlns:xlink="http://www.w3.org/1999/xlink" width="205.859375" height="200"><defs><style type="text/css"></style></defs><path d="M542.72 152.576q45.056-62.464 100.352-92.16t112.128-30.72 110.592 23.04 95.232 68.608 67.072 106.496 25.6 136.704q0 77.824-29.184 145.408t-74.24 125.952-99.328 108.544-104.448 91.136q-34.816 28.672-61.952 50.176t-47.616 38.912-36.352 30.72-29.184 24.576q-8.192-6.144-14.336-19.456-5.12-11.264-9.728-32.768t-4.608-55.296q0-44.032 4.608-70.144t9.728-40.448q6.144-16.384 14.336-21.504 13.312-11.264 30.72-25.088t44.032-35.328q27.648-22.528 56.832-49.664t53.76-58.88 40.448-68.608 15.872-79.872q0-49.152-20.48-88.576t-51.712-62.976-69.632-28.672-75.264 12.288q-7.168 17.408-21.504 29.184t-32.768 15.872q-3.072 5.12-6.656 9.728t-7.68 10.752q-8.192-13.312-14.336-20.48-19.456-4.096-33.792-15.872t-21.504-29.184q-36.864-17.408-74.752-12.288t-69.632 29.184-51.712 63.488-19.968 89.6q0 41.984 15.872 78.848t40.448 68.096 54.272 58.368 56.32 49.664q25.6 21.504 43.008 35.84t30.72 25.6q8.192 5.12 14.336 21.504 5.12 14.336 10.24 39.936t5.12 69.632q0 32.768-5.12 53.76t-10.24 33.28q-6.144 14.336-14.336 21.504-13.312-11.264-29.184-24.576t-36.352-30.208-47.104-38.912-61.44-51.712q-49.152-41.984-103.936-91.648t-99.84-107.52-74.752-124.928-29.696-144.896q0-74.752 25.6-137.216t67.072-107.008 95.744-69.12 111.104-23.552 112.128 30.72 100.352 92.16q10.24-2.048 15.36-2.048t15.36 2.048z" p-id="2007"></path></svg>