<?xml version="1.0" standalone="no"?><!DOCTYPE svg PUBLIC "-//W3C//DTD SVG 1.1//EN" "http://www.w3.org/Graphics/SVG/1.1/DTD/svg11.dtd"><svg t="1598334386915" class="icon" viewBox="0 0 1024 1024" version="1.1" xmlns="http://www.w3.org/2000/svg" p-id="5232" xmlns:xlink="http://www.w3.org/1999/xlink" width="200" height="200"><defs><style type="text/css"></style></defs><path d="M380.36396 566.298587l300.553318 205.558677a149.295574 149.295574 0 1 1-38.731537 76.865893L338.262608 640.818406a149.295574 149.295574 0 1 1-13.180667-226.374746l318.938002-230.299087a149.295574 149.295574 0 1 1 43.082437 74.093261L375.501189 483.418215a149.039639 149.039639 0 0 1 4.905426 82.923028zM789.263209 213.406506a63.983817 63.983817 0 1 0 0-127.967635 63.983817 63.983817 0 0 0 0 127.967635z m0 725.149931a63.983817 63.983817 0 1 0 0-127.967635 63.983817 63.983817 0 0 0 0 127.967635z m-554.526418-341.247027a63.983817 63.983817 0 1 0 0-127.967634 63.983817 63.983817 0 0 0 0 127.967634z" fill="currentColor" p-id="5233"></path></svg>